<svg xmlns="http://www.w3.org/2000/svg" version="1.1" xmlns:xlink="http://www.w3.org/1999/xlink" xmlns:svgjs="http://svgjs.dev/svgjs" width="1000" height="623" viewBox="0 0 1000 623"><g transform="matrix(1,0,0,1,-0.6060606060606233,0.2522267206477409)"><svg viewBox="0 0 396 247" data-background-color="#ffffff" preserveAspectRatio="xMidYMid meet" height="623" width="1000" xmlns="http://www.w3.org/2000/svg" xmlns:xlink="http://www.w3.org/1999/xlink"><g id="tight-bounds" transform="matrix(1,0,0,1,0.2400000000000091,-0.09999999999999432)"><svg viewBox="0 0 395.52 247.2" height="247.2" width="395.52"><g><svg></svg></g><g><svg viewBox="0 0 395.52 247.2" height="247.2" width="395.52"><g transform="matrix(1,0,0,1,88.95362967032968,47.215199999999996)"><svg viewBox="0 0 217.61274065934063 152.7696" height="152.7696" width="217.61274065934063"><g><svg viewBox="0 0 217.61274065934063 152.7696" height="152.7696" width="217.61274065934063"><g><svg viewBox="0 0 217.6127406593407 152.76960000000003" height="152.7696" width="217.61274065934063"><g><svg viewBox="0 0 217.6127406593407 152.76960000000003" height="152.76960000000003" width="217.6127406593407"><g><svg viewBox="0 0 217.6127406593407 152.76960000000003" height="152.76960000000003" width="217.6127406593407" id="textblock"><g><svg viewBox="0 0 217.6127406593407 152.76960000000003" height="152.76960000000003" width="217.6127406593407"><g transform="matrix(1,0,0,1,0,0)"><svg width="217.6127406593407" viewBox="3.5999999046325684 -36.400001525878906 51.85000228881836 36.400001525878906" height="152.76960000000003" data-palette-color="#ba3b0a"><path d="M4.3-33.1L3.6-36.4 23.75-36.4 23.75-32.95 8.95-32.95 8.95-20.4 20.7-20.4 20.7-17 8.95-17 8.95 0 4.3 0 4.3-33.1ZM29.75-33.1L29.05-36.4 39.9-36.4Q43.35-36.4 46.15-35.52 48.95-34.65 50.57-32.45 52.2-30.25 52.2-26.35L52.2-26.35Q52.2-24.35 51.25-22.5 50.3-20.65 48.72-19.28 47.15-17.9 45.25-17.3L45.25-17.3 55.45 0 50.05 0 40.65-16.35 34.4-16.35 34.4 0 29.75 0 29.75-33.1ZM39.9-32.95L34.4-32.95 34.4-19.75 38.4-19.75Q40.9-19.75 42.92-20.33 44.95-20.9 46.15-22.4 47.35-23.9 47.35-26.65L47.35-26.65Q47.35-28.8 46.3-30.18 45.25-31.55 43.55-32.25 41.85-32.95 39.9-32.95L39.9-32.95Z" opacity="1" transform="matrix(1,0,0,1,0,0)" fill="#ba3b0a" class="undefined-text-0" data-fill-palette-color="primary" id="text-0"></path></svg></g></svg></g></svg></g></svg></g></svg></g></svg></g></svg></g><path d="M271.255 41.215L271.255 0 24.055 0 24.055 247.2 271.255 247.2 271.255 205.985 257.478 205.985 257.478 233.423 37.832 233.423 37.832 13.777 257.478 13.777 257.478 41.215Z" fill="#ba3b0a" stroke="transparent" data-fill-palette-color="primary"></path></svg></g><defs></defs></svg><rect width="395.52" height="247.2" fill="none" stroke="none" visibility="hidden"></rect></g></svg></g></svg>